{
  "accessors": [
    {
      "bufferView": 2,
      "componentType": 5126,
      "count": 48,
      "max": [
        0.9345710277557373,
        -0.06152860075235367,
        -0.29391899704933167
      ],
      "min": [
        -0.9345710277557373,
        -0.544530987739563,
        -0.47350800037384033
      ],
      "type": "VEC3"
    },
    {
      "bufferView": 2,
      "byteOffset": 576,
      "componentType": 5126,
      "count": 48,
      "max": [
        0.7147700786590576,
        0.31098511815071106,
        0.7428619861602783
      ],
      "min": [
        -0.7147700786590576,
        -0.31020301580429077,
        -0.7448511719703674
      ],
      "type": "VEC3"
    },
    {
      "bufferView": 3,
      "componentType": 5126,
      "count": 48,
      "max": [
        0.2703306972980499,
        0.993813693523407,
        0.6874608993530273,
        1.0
      ],
      "min": [
        -0.7755085229873657,
        -0.9922647476196289,
        -0.6874578595161438,
        1.0
      ],
      "type": "VEC4"
    },
    {
      "bufferView": 1,
      "componentType": 5126,
      "count": 48,
      "max": [
        0.9903920292854309,
        0.9877399802207947
      ],
      "min": [
        0.21283499896526337,
        0.010989000089466572
      ],
      "type": "VEC2"
    },
    {
      "bufferView": 0,
      "componentType": 5125,
      "count": 72,
      "type": "SCALAR"
    },
    {
      "bufferView": 2,
      "byteOffset": 1152,
      "componentType": 5126,
      "count": 48,
      "max": [
        0.7791590094566345,
        -0.06152860075235367,
        0.5048320293426514
      ],
      "min": [
        -0.7791590094566345,
        -0.23421700298786163,
        -0.47350800037384033
      ],
      "type": "VEC3"
    },
    {
      "bufferView": 2,
      "byteOffset": 1728,
      "componentType": 5126,
      "count": 48,
      "max": [
        0.07498899847269058,
        0.6986510157585144,
        0.8239701986312866
      ],
      "min": [
        -0.07498899847269058,
        -0.6609999537467957,
        -0.8556910157203674
      ],
      "type": "VEC3"
    },
    {
      "bufferView": 3,
      "byteOffset": 768,
      "componentType": 5126,
      "count": 48,
      "max": [
        0.1796024590730667,
        0.8533231019973755,
        0.6436747908592224,
        1.0
      ],
      "min": [
        -0.9980666637420654,
        -0.05253906920552254,
        -0.7024595737457275,
        1.0
      ],
      "type": "VEC4"
    },
    {
      "bufferView": 1,
      "byteOffset": 384,
      "componentType": 5126,
      "count": 48,
      "max": [
        0.9914519786834717,
        0.7174580097198486
      ],
      "min": [
        0.013942999765276909,
        0.010989000089466572
      ],
      "type": "VEC2"
    },
    {
      "bufferView": 0,
      "byteOffset": 288,
      "componentType": 5125,
      "count": 72,
      "type": "SCALAR"
    },
    {
      "bufferView": 2,
      "byteOffset": 2304,
      "componentType": 5126,
      "count": 24,
      "max": [
        0.7791590094566345,
        -0.06152860075235367,
        0.37926799058914185
      ],
      "min": [
        -0.7791590094566345,
        -0.23421700298786163,
        -0.3235819935798645
      ],
      "type": "VEC3"
    },
    {
      "bufferView": 2,
      "byteOffset": 2592,
      "componentType": 5126,
      "count": 24,
      "max": [
        0.11181800067424774,
        0.9682285189628601,
        0.2530139982700348
      ],
      "min": [
        -0.11181803792715073,
        -0.9609793424606323,
        -0.2533039450645447
      ],
      "type": "VEC3"
    },
    {
      "bufferView": 3,
      "byteOffset": 1536,
      "componentType": 5126,
      "count": 24,
      "max": [
        0.02923351153731346,
        0.2516113817691803,
        0.9737933874130249,
        1.0
      ],
      "min": [
        -0.9946027398109436,
        -0.2516113817691803,
        -0.9737933874130249,
        1.0
      ],
      "type": "VEC4"
    },
    {
      "bufferView": 1,
      "byteOffset": 768,
      "componentType": 5126,
      "count": 24,
      "max": [
        0.9548519849777222,
        0.954472005367279
      ],
      "min": [
        0.013942999765276909,
        0.010989000089466572
      ],
      "type": "VEC2"
    },
    {
      "bufferView": 0,
      "byteOffset": 576,
      "componentType": 5125,
      "count": 36,
      "type": "SCALAR"
    },
    {
      "bufferView": 2,
      "byteOffset": 2880,
      "componentType": 5126,
      "count": 56,
      "max": [
        0.8231329917907715,
        0.544530987739563,
        -0.3470050096511841
      ],
      "min": [
        -0.8231340050697327,
        0.3198679983615875,
        -0.5271779894828796
      ],
      "type": "VEC3"
    },
    {
      "bufferView": 2,
      "byteOffset": 3552,
      "componentType": 5126,
      "count": 56,
      "max": [
        0.273049920797348,
        0.8292002081871033,
        0.6641740202903748
      ],
      "min": [
        -0.27305006980895996,
        -0.8483877182006836,
        -0.6273263096809387
      ],
      "type": "VEC3"
    },
    {
      "bufferView": 3,
      "byteOffset": 1920,
      "componentType": 5126,
      "count": 56,
      "max": [
        0.16909316182136536,
        0.5384302735328674,
        0.8651067018508911,
        1.0
      ],
      "min": [
        -0.9949653744697571,
        -0.5384302735328674,
        -0.8651071786880493,
        1.0
      ],
      "type": "VEC4"
    },
    {
      "bufferView": 1,
      "byteOffset": 960,
      "componentType": 5126,
      "count": 56,
      "max": [
        0.873179018497467,
        0.8517299890518188
      ],
      "min": [
        0.013942999765276909,
        0.32028499245643616
      ],
      "type": "VEC2"
    },
    {
      "bufferView": 0,
      "byteOffset": 720,
      "componentType": 5125,
      "count": 132,
      "type": "SCALAR"
    },
    {
      "bufferView": 2,
      "byteOffset": 4224,
      "componentType": 5126,
      "count": 24,
      "max": [
        -0.7356860041618347,
        0.1908089965581894,
        0.5271779894828796
      ],
      "min": [
        -0.9618129730224609,
        -0.544530987739563,
        0.34747499227523804
      ],
      "type": "VEC3"
    },
    {
      "bufferView": 2,
      "byteOffset": 4512,
      "componentType": 5126,
      "count": 24,
      "max": [
        0.6630110740661621,
        0.23860099911689758,
        0.806892991065979
      ],
      "min": [
        -0.662237823009491,
        -0.23875193297863007,
        -0.805756151676178
      ],
      "type": "VEC3"
    },
    {
      "bufferView": 3,
      "byteOffset": 2816,
      "componentType": 5126,
      "count": 24,
      "max": [
        0.1152634471654892,
        0.9982727766036987,
        0.6540741920471191,
        1.0
      ],
      "min": [
        -0.8161741495132446,
        -0.9990271329879761,
        -0.6314836144447327,
        1.0
      ],
      "type": "VEC4"
    },
    {
      "bufferView": 1,
      "byteOffset": 1408,
      "componentType": 5126,
      "count": 24,
      "max": [
        0.9076449871063232,
        0.974386990070343
      ],
      "min": [
        0.46632400155067444,
        0.3335550129413605
      ],
      "type": "VEC2"
    },
    {
      "bufferView": 0,
      "byteOffset": 1248,
      "componentType": 5125,
      "count": 36,
      "type": "SCALAR"
    },
    {
      "bufferView": 2,
      "byteOffset": 4800,
      "componentType": 5126,
      "count": 24,
      "max": [
        -0.7905150055885315,
        0.1908089965581894,
        0.39587798714637756
      ],
      "min": [
        -0.9618129730224609,
        0.06464020162820816,
        -0.33907899260520935
      ],
      "type": "VEC3"
    },
    {
      "bufferView": 2,
      "byteOffset": 5088,
      "componentType": 5126,
      "count": 24,
      "max": [
        0.6637089848518372,
        0.8081833124160767,
        0.13796404004096985
      ],
      "min": [
        -0.6305698156356812,
        -0.7879317998886108,
        -0.13774998486042023
      ],
      "type": "VEC3"
    },
    {
      "bufferView": 3,
      "byteOffset": 3200,
      "componentType": 5126,
      "count": 24,
      "max": [
        0.08790561556816101,
        0.5928297638893127,
        0.9913480281829834,
        1.0
      ],
      "min": [
        -0.8198745846748352,
        -0.6534097790718079,
        -0.9910449981689453,
        1.0
      ],
      "type": "VEC4"
    },
    {
      "bufferView": 1,
      "byteOffset": 1600,
      "componentType": 5126,
      "count": 24,
      "max": [
        0.9840880036354065,
        0.9890109896659851
      ],
      "min": [
        0.013942999765276909,
        0.21561600267887115
      ],
      "type": "VEC2"
    },
    {
      "bufferView": 0,
      "byteOffset": 1392,
      "componentType": 5125,
      "count": 36,
      "type": "SCALAR"
    },
    {
      "bufferView": 2,
      "byteOffset": 5376,
      "componentType": 5126,
      "count": 24,
      "max": [
        0.9618129730224609,
        0.1908089965581894,
        0.5271779894828796
      ],
      "min": [
        0.7356860041618347,
        -0.544530987739563,
        0.34747499227523804
      ],
      "type": "VEC3"
    },
    {
      "bufferView": 2,
      "byteOffset": 5664,
      "componentType": 5126,
      "count": 24,
      "max": [
        0.6622372269630432,
        0.23860114812850952,
        0.8068938255310059
      ],
      "min": [
        -0.6630100011825562,
        -0.23875193297863007,
        -0.805756151676178
      ],
      "type": "VEC3"
    },
    {
      "bufferView": 3,
      "byteOffset": 3584,
      "componentType": 5126,
      "count": 24,
      "max": [
        0.2146807312965393,
        0.9982725381851196,
        0.6314830183982849,
        1.0
      ],
      "min": [
        -0.8161749243736267,
        -0.9990272521972656,
        -0.6540732383728027,
        1.0
      ],
      "type": "VEC4"
    },
    {
      "bufferView": 1,
      "byteOffset": 1792,
      "componentType": 5126,
      "count": 24,
      "max": [
        0.9895420074462891,
        0.9502779841423035
      ],
      "min": [
        0.37662801146507263,
        0.28541699051856995
      ],
      "type": "VEC2"
    },
    {
      "bufferView": 0,
      "byteOffset": 1536,
      "componentType": 5125,
      "count": 36,
      "type": "SCALAR"
    },
    {
      "bufferView": 2,
      "byteOffset": 5952,
      "componentType": 5126,
      "count": 24,
      "max": [
        0.9618129730224609,
        0.1908089965581894,
        0.39587798714637756
      ],
      "min": [
        0.7905150055885315,
        0.06464020162820816,
        -0.33907899260520935
      ],
      "type": "VEC3"
    },
    {
      "bufferView": 2,
      "byteOffset": 6240,
      "componentType": 5126,
      "count": 24,
      "max": [
        0.6305698156356812,
        0.8081836700439453,
        0.1379639357328415
      ],
      "min": [
        -0.6637089848518372,
        -0.7879317998886108,
        -0.13774998486042023
      ],
      "type": "VEC3"
    },
    {
      "bufferView": 3,
      "byteOffset": 3968,
      "componentType": 5126,
      "count": 24,
      "max": [
        0.08790558576583862,
        0.6534097790718079,
        0.9913480281829834,
        1.0
      ],
      "min": [
        -0.8198749423027039,
        -0.592829167842865,
        -0.9913479685783386,
        1.0
      ],
      "type": "VEC4"
    },
    {
      "bufferView": 1,
      "byteOffset": 1984,
      "componentType": 5126,
      "count": 24,
      "max": [
        0.9691950082778931,
        0.9763590097427368
      ],
      "min": [
        0.013942999765276909,
        0.8138610124588013
      ],
      "type": "VEC2"
    },
    {
      "bufferView": 0,
      "byteOffset": 1680,
      "componentType": 5125,
      "count": 36,
      "type": "SCALAR"
    },
    {
      "bufferView": 2,
      "byteOffset": 6528,
      "componentType": 5126,
      "count": 60,
      "max": [
        1.0,
        0.544530987739563,
        -0.3235819935798645
      ],
      "min": [
        -1.0,
        -0.06152860075235367,
        -0.5271779894828796
      ],
      "type": "VEC3"
    },
    {
      "bufferView": 2,
      "byteOffset": 7248,
      "componentType": 5126,
      "count": 60,
      "max": [
        0.9057298898696899,
        0.4704471230506897,
        0.9831185340881348
      ],
      "min": [
        -0.9057294726371765,
        -0.3246638774871826,
        -0.9458276629447937
      ],
      "type": "VEC3"
    },
    {
      "bufferView": 3,
      "byteOffset": 4352,
      "componentType": 5126,
      "count": 60,
      "max": [
        0.8651431798934937,
        0.9990043044090271,
        0.8950292468070984,
        1.0
      ],
      "min": [
        -0.9999991059303284,
        -0.9971943497657776,
        -0.8950310349464417,
        1.0
      ],
      "type": "VEC4"
    },
    {
      "bufferView": 1,
      "byteOffset": 2176,
      "componentType": 5126,
      "count": 60,
      "max": [
        0.991474986076355,
        0.8682069778442383
      ],
      "min": [
        0.013942999765276909,
        0.4873790144920349
      ],
      "type": "VEC2"
    },
    {
      "bufferView": 0,
      "byteOffset": 1824,
      "componentType": 5125,
      "count": 120,
      "type": "SCALAR"
    },
    {
      "bufferView": 2,
      "byteOffset": 7968,
      "componentType": 5126,
      "count": 48,
      "max": [
        0.9345710277557373,
        -0.06152860075235367,
        0.37926799058914185
      ],
      "min": [
        -0.9345710277557373,
        -0.23421700298786163,
        -0.3235819935798645
      ],
      "type": "VEC3"
    },
    {
      "bufferView": 2,
      "byteOffset": 8544,
      "componentType": 5126,
      "count": 48,
      "max": [
        0.7874137163162231,
        0.7064969539642334,
        0.16859997808933258
      ],
      "min": [
        -0.7874133586883545,
        -0.6823692321777344,
        -0.1682610809803009
      ],
      "type": "VEC3"
    },
    {
      "bufferView": 3,
      "byteOffset": 5312,
      "componentType": 5126,
      "count": 48,
      "max": [
        0.7050554752349854,
        0.8006808757781982,
        0.9873558878898621,
        1.0
      ],
      "min": [
        -0.7050542235374451,
        -0.8005133867263794,
        -0.9873557686805725,
        1.0
      ],
      "type": "VEC4"
    },
    {
      "bufferView": 1,
      "byteOffset": 2656,
      "componentType": 5126,
      "count": 48,
      "max": [
        0.9907429814338684,
        0.9520260095596313
      ],
      "min": [
        0.013942999765276909,
        0.05956299975514412
      ],
      "type": "VEC2"
    },
    {
      "bufferView": 0,
      "byteOffset": 2304,
      "componentType": 5125,
      "count": 72,
      "type": "SCALAR"
    },
    {
      "bufferView": 2,
      "byteOffset": 9120,
      "componentType": 5126,
      "count": 160,
      "max": [
        0.7651659846305847,
        0.4115779995918274,
        -0.36742299795150757
      ],
      "min": [
        -0.7628120183944702,
        -0.06152860075235367,
        -0.4678080081939697
      ],
      "type": "VEC3"
    },
    {
      "bufferView": 2,
      "byteOffset": 11040,
      "componentType": 5126,
      "count": 160,
      "max": [
        0.4271208643913269,
        0.4248060882091522,
        0.975742518901825
      ],
      "min": [
        -0.4196869432926178,
        -0.4052419066429138,
        -0.9730110168457031
      ],
      "type": "VEC3"
    },
    {
      "bufferView": 3,
      "byteOffset": 6080,
      "componentType": 5126,
      "count": 160,
      "max": [
        0.17682065069675446,
        0.9993745684623718,
        0.4077313244342804,
        1.0
      ],
      "min": [
        -0.9742123484611511,
        -0.9985771179199219,
        -0.43813589215278625,
        1.0
      ],
      "type": "VEC4"
    },
    {
      "bufferView": 1,
      "byteOffset": 3040,
      "componentType": 5126,
      "count": 160,
      "max": [
        0.9918339848518372,
        0.9810069799423218
      ],
      "min": [
        0.013942999765276909,
        0.09505099803209305
      ],
      "type": "VEC2"
    },
    {
      "bufferView": 0,
      "byteOffset": 2592,
      "componentType": 5125,
      "count": 300,
      "type": "SCALAR"
    }
  ],
  "asset": {
    "extras": {
      "author": "salmonclosebeta (https://sketchfab.com/salmonclosebeta)",
      "license": "CC-BY-4.0 (http://creativecommons.org/licenses/by/4.0/)",
      "source": "https://sketchfab.com/3d-models/bench-stylized-ee9269517e1441b898ae25f6128bd969",
      "title": "Bench Stylized"
    },
    "generator": "Sketchfab-12.66.0",
    "version": "2.0"
  },
  "bufferViews": [
    {
      "buffer": 0,
      "byteLength": 3792,
      "name": "floatBufferViews",
      "target": 34963
    },
    {
      "buffer": 0,
      "byteLength": 4320,
      "byteOffset": 3792,
      "byteStride": 8,
      "name": "floatBufferViews",
      "target": 34962
    },
    {
      "buffer": 0,
      "byteLength": 12960,
      "byteOffset": 8112,
      "byteStride": 12,
      "name": "floatBufferViews",
      "target": 34962
    },
    {
      "buffer": 0,
      "byteLength": 8640,
      "byteOffset": 21072,
      "byteStride": 16,
      "name": "floatBufferViews",
      "target": 34962
    }
  ],
  "buffers": [
    {
      "byteLength": 29712,
      "uri": "scene.bin"
    }
  ],
  "images": [
    {
      "uri": "textures/initialShadingGroup_baseColor.jpeg"
    },
    {
      "uri": "textures/initialShadingGroup_metallicRoughness.png"
    },
    {
      "uri": "textures/initialShadingGroup_normal.png"
    }
  ],
  "materials": [
    {
      "doubleSided": true,
      "name": "initialShadingGroup",
      "normalTexture": {
        "index": 2
      },
      "occlusionTexture": {
        "index": 1
      },
      "pbrMetallicRoughness": {
        "baseColorTexture": {
          "index": 0
        },
        "metallicRoughnessTexture": {
          "index": 1
        }
      }
    }
  ],
  "meshes": [
    {
      "name": "defaultMaterial",
      "primitives": [
        {
          "attributes": {
            "NORMAL": 1,
            "POSITION": 0,
            "TANGENT": 2,
            "TEXCOORD_0": 3
          },
          "indices": 4,
          "material": 0,
          "mode": 4
        }
      ]
    },
    {
      "name": "defaultMaterial",
      "primitives": [
        {
          "attributes": {
            "NORMAL": 6,
            "POSITION": 5,
            "TANGENT": 7,
            "TEXCOORD_0": 8
          },
          "indices": 9,
          "material": 0,
          "mode": 4
        }
      ]
    },
    {
      "name": "defaultMaterial",
      "primitives": [
        {
          "attributes": {
            "NORMAL": 11,
            "POSITION": 10,
            "TANGENT": 12,
            "TEXCOORD_0": 13
          },
          "indices": 14,
          "material": 0,
          "mode": 4
        }
      ]
    },
    {
      "name": "defaultMaterial",
      "primitives": [
        {
          "attributes": {
            "NORMAL": 16,
            "POSITION": 15,
            "TANGENT": 17,
            "TEXCOORD_0": 18
          },
          "indices": 19,
          "material": 0,
          "mode": 4
        }
      ]
    },
    {
      "name": "defaultMaterial",
      "primitives": [
        {
          "attributes": {
            "NORMAL": 21,
            "POSITION": 20,
            "TANGENT": 22,
            "TEXCOORD_0": 23
          },
          "indices": 24,
          "material": 0,
          "mode": 4
        }
      ]
    },
    {
      "name": "defaultMaterial",
      "primitives": [
        {
          "attributes": {
            "NORMAL": 26,
            "POSITION": 25,
            "TANGENT": 27,
            "TEXCOORD_0": 28
          },
          "indices": 29,
          "material": 0,
          "mode": 4
        }
      ]
    },
    {
      "name": "defaultMaterial",
      "primitives": [
        {
          "attributes": {
            "NORMAL": 31,
            "POSITION": 30,
            "TANGENT": 32,
            "TEXCOORD_0": 33
          },
          "indices": 34,
          "material": 0,
          "mode": 4
        }
      ]
    },
    {
      "name": "defaultMaterial",
      "primitives": [
        {
          "attributes": {
            "NORMAL": 36,
            "POSITION": 35,
            "TANGENT": 37,
            "TEXCOORD_0": 38
          },
          "indices": 39,
          "material": 0,
          "mode": 4
        }
      ]
    },
    {
      "name": "defaultMaterial",
      "primitives": [
        {
          "attributes": {
            "NORMAL": 41,
            "POSITION": 40,
            "TANGENT": 42,
            "TEXCOORD_0": 43
          },
          "indices": 44,
          "material": 0,
          "mode": 4
        }
      ]
    },
    {
      "name": "defaultMaterial",
      "primitives": [
        {
          "attributes": {
            "NORMAL": 46,
            "POSITION": 45,
            "TANGENT": 47,
            "TEXCOORD_0": 48
          },
          "indices": 49,
          "material": 0,
          "mode": 4
        }
      ]
    },
    {
      "name": "defaultMaterial",
      "primitives": [
        {
          "attributes": {
            "NORMAL": 51,
            "POSITION": 50,
            "TANGENT": 52,
            "TEXCOORD_0": 53
          },
          "indices": 54,
          "material": 0,
          "mode": 4
        }
      ]
    }
  ],
  "nodes": [
    {
      "children": [
        1
      ],
      "matrix": [
        1.0,
        0.0,
        0.0,
        0.0,
        0.0,
        2.220446049250313e-16,
        -1.0,
        0.0,
        0.0,
        1.0,
        2.220446049250313e-16,
        0.0,
        0.0,
        0.0,
        0.0,
        1.0
      ],
      "name": "Sketchfab_model"
    },
    {
      "children": [
        2,
        4,
        6,
        8,
        10,
        12,
        14,
        16,
        18,
        20,
        22
      ],
      "matrix": [
        1.0,
        0.0,
        0.0,
        0.0,
        0.0,
        -4.371139006309477e-08,
        0.999999999999999,
        0.0,
        0.0,
        -0.999999999999999,
        -4.371139006309477e-08,
        0.0,
        0.0,
        0.0,
        0.0,
        1.0
      ],
      "name": "Collada visual scene group"
    },
    {
      "children": [
        3
      ],
      "name": "g"
    },
    {
      "mesh": 0,
      "name": "defaultMaterial"
    },
    {
      "children": [
        5
      ],
      "name": "g"
    },
    {
      "mesh": 1,
      "name": "defaultMaterial"
    },
    {
      "children": [
        7
      ],
      "name": "g"
    },
    {
      "mesh": 2,
      "name": "defaultMaterial"
    },
    {
      "children": [
        9
      ],
      "name": "g"
    },
    {
      "mesh": 3,
      "name": "defaultMaterial"
    },
    {
      "children": [
        11
      ],
      "name": "g"
    },
    {
      "mesh": 4,
      "name": "defaultMaterial"
    },
    {
      "children": [
        13
      ],
      "name": "g"
    },
    {
      "mesh": 5,
      "name": "defaultMaterial"
    },
    {
      "children": [
        15
      ],
      "name": "g"
    },
    {
      "mesh": 6,
      "name": "defaultMaterial"
    },
    {
      "children": [
        17
      ],
      "name": "g"
    },
    {
      "mesh": 7,
      "name": "defaultMaterial"
    },
    {
      "children": [
        19
      ],
      "name": "g"
    },
    {
      "mesh": 8,
      "name": "defaultMaterial"
    },
    {
      "children": [
        21
      ],
      "name": "g"
    },
    {
      "mesh": 9,
      "name": "defaultMaterial"
    },
    {
      "children": [
        23
      ],
      "name": "g"
    },
    {
      "mesh": 10,
      "name": "defaultMaterial"
    }
  ],
  "samplers": [
    {
      "magFilter": 9729,
      "minFilter": 9987,
      "wrapS": 10497,
      "wrapT": 10497
    }
  ],
  "scene": 0,
  "scenes": [
    {
      "name": "Sketchfab_Scene",
      "nodes": [
        0
      ]
    }
  ],
  "textures": [
    {
      "sampler": 0,
      "source": 0
    },
    {
      "sampler": 0,
      "source": 1
    },
    {
      "sampler": 0,
      "source": 2
    }
  ]
}
